<?xml version="1.0"?><svg width="640" height="480" xmlns="http://www.w3.org/2000/svg">
 <title>Contact Me</title>
 <metadata id="metadata2421"/>
 <defs>
  <filter id="filter3239">
   <feGaussianBlur stdDeviation="6.923063" id="feGaussianBlur3241"/>
  </filter>
 </defs>
 <metadata id="metadata2423">Chat calloutimage/svg+xml</metadata>
 <g>
  <title>Layer 1</title>
  <g id="g3182">
   <path d="m188.783875,176.142776c-64.775482,1.040863 -121.910294,37.13829 -134.040546,88.3452c-13.857468,58.49826 36.239445,114.669098 111.838947,125.426056c0.0159,0.090118 -0.01088,0.22345 -0.018082,0.352264l-0.433548,0.018555l-58.909187,54.786987l121.033897,-56.863525l-1.192261,0.037079l0.776779,-0.593292l1.734222,-0.055634l-1.318741,0.611847l1.661957,-0.055634l0,-0.574738l0.018082,0c52.371796,-11.536652 89.089325,-42.794891 98.904541,-84.229187c13.863159,-58.522202 -36.296051,-114.720413 -111.947311,-125.444626c-9.45639,-1.34053 -18.855118,-1.910034 -28.108749,-1.761353z" id="path780" filter="url(#filter3239)" stroke-linecap="round" stroke-width="2.5" fill-rule="evenodd" fill-opacity="0.498039" fill="#000000"/>
   <path d="m205.42981,155.342819c-64.775452,1.040848 -121.910202,37.138245 -134.040421,88.345108c-13.85746,58.49823 36.23941,114.669006 111.838852,125.425964c0.0159,0.090118 -0.010895,0.22348 -0.018082,0.352295l-0.433548,0.018524l-58.909119,54.786957l121.033783,-56.863495l-1.192291,0.037079l0.776794,-0.593292l1.734222,-0.055603l-1.318726,0.611816l1.661957,-0.055603l0,-0.574768l0.018066,0c52.371735,-11.536652 89.089294,-42.794861 98.90451,-84.229126c13.863098,-58.522156 -36.296082,-114.720306 -111.947235,-125.444534c-9.456406,-1.340515 -18.855133,-1.910019 -28.108765,-1.761322z" id="path779" stroke-miterlimit="4" stroke-linejoin="round" stroke-linecap="round" stroke-width="15" stroke="#3399ff" fill-rule="evenodd" fill="#ffffff"/>
   <path d="m320.322937,44.994068c81.465118,1.309032 153.320862,46.707073 168.576477,111.107601c17.427856,73.570511 -45.57663,144.213913 -140.654572,157.742447c-0.019989,0.113373 0.013702,0.281036 0.022736,0.443024l0.545258,0.023315l74.087311,68.903046l-152.218628,-71.514587l1.499451,0.046631l-0.976929,-0.746155l-2.18103,-0.069946l1.658508,0.76947l-2.090149,-0.069946l0,-0.722839l-0.022766,0c-65.865509,-14.509094 -112.043457,-53.821136 -124.387604,-105.931107c-17.435028,-73.600601 45.647888,-144.278442 140.790894,-157.765793c11.892883,-1.685917 23.713196,-2.402157 35.351044,-2.21516z" id="path2389" filter="url(#filter3239)" stroke-linecap="round" stroke-width="2.5" fill-rule="evenodd" fill-opacity="0.498039" fill="#000000"/>
   <path d="m342.087006,24.957199c81.464996,1.309 153.320984,46.707001 168.575989,111.107803c17.428009,73.569992 -45.575989,144.213989 -140.653992,157.742004c-0.019989,0.113007 0.013,0.281006 0.022003,0.442993l0.54599,0.02301l74.087006,68.902985l-152.218994,-71.514008l1.5,0.047028l-0.97702,-0.747009l-2.181,-0.070007l1.65802,0.769989l-2.089996,-0.069977l0,-0.723022l-0.022003,0c-65.866013,-14.509003 -112.044006,-53.820984 -124.388,-105.930984c-17.435013,-73.601006 45.647995,-144.278305 140.790985,-157.765703c11.893005,-1.6859 23.713013,-2.4021 35.351013,-2.215101l0,0z" id="path2391" stroke-miterlimit="4" stroke-linejoin="round" stroke-linecap="round" stroke-width="20" stroke="#3399ff" fill-rule="evenodd" fill="#ffffff"/>
  </g>
  <text transform="matrix(1.9243, 0, 0, 2.37037, -272.359, -73.5185)" fill="#000000" stroke="#000000" stroke-width="0" x="317.205" y="101.797" id="svg_1" font-size="24" font-family="serif" text-anchor="middle" xml:space="preserve">Contact Me</text>
 </g>
</svg>